<svg width="148" height="62" viewBox="0 0 148 62" fill="none" xmlns="http://www.w3.org/2000/svg">
<path fill-rule="evenodd" clip-rule="evenodd" d="M30.5 61.5C47.3447 61.5 61 47.8447 61 31C61 14.1553 47.3447 0.5 30.5 0.5C22.3454 0.5 14.9382 3.70024 9.46595 8.91331C13.7107 5.55496 19.0754 3.55 24.9083 3.55C38.6648 3.55 49.8167 14.7018 49.8167 28.4583C49.8167 42.2148 38.6648 53.3667 24.9083 53.3667C11.5563 53.3667 0.658014 42.8609 0.0287034 29.6647C0.00963315 30.1075 0 30.5526 0 31C0 47.8447 13.6553 61.5 30.5 61.5Z" fill="#064C1E"/>
<path fill-rule="evenodd" clip-rule="evenodd" d="M24.9083 53.3667C38.6648 53.3667 49.8167 42.2148 49.8167 28.4583C49.8167 28.4405 49.8166 28.4226 49.8166 28.4048C49.7906 39.5001 40.7881 48.4867 29.6867 48.4867C18.5692 48.4867 9.55667 39.4741 9.55667 28.3567C9.55667 17.2392 18.5692 8.22665 29.6867 8.22665C40.5016 8.22665 49.3245 16.7552 49.7968 27.4537C49.2696 14.163 38.3284 3.54999 24.9083 3.54999C11.1518 3.54999 0 14.7018 0 28.4583C0 42.2148 11.1518 53.3667 24.9083 53.3667Z" fill="#1B1715"/>
<path d="M90.0341 18.7273C90.0341 20.2614 89.7571 21.5871 89.2031 22.7045C88.6491 23.822 87.8892 24.6837 86.9233 25.2898C85.9574 25.8958 84.8542 26.1989 83.6136 26.1989C82.3731 26.1989 81.2699 25.8958 80.304 25.2898C79.3381 24.6837 78.5781 23.822 78.0241 22.7045C77.4702 21.5871 77.1932 20.2614 77.1932 18.7273C77.1932 17.1932 77.4702 15.8674 78.0241 14.75C78.5781 13.6326 79.3381 12.7708 80.304 12.1648C81.2699 11.5587 82.3731 11.2557 83.6136 11.2557C84.8542 11.2557 85.9574 11.5587 86.9233 12.1648C87.8892 12.7708 88.6491 13.6326 89.2031 14.75C89.7571 15.8674 90.0341 17.1932 90.0341 18.7273ZM88.3295 18.7273C88.3295 17.4678 88.1188 16.4048 87.6974 15.5384C87.2808 14.6719 86.715 14.0161 86 13.571C85.2898 13.1259 84.4943 12.9034 83.6136 12.9034C82.733 12.9034 81.9351 13.1259 81.2202 13.571C80.5099 14.0161 79.9441 14.6719 79.5227 15.5384C79.1061 16.4048 78.8977 17.4678 78.8977 18.7273C78.8977 19.9867 79.1061 21.0497 79.5227 21.9162C79.9441 22.7827 80.5099 23.4384 81.2202 23.8835C81.9351 24.3286 82.733 24.5511 83.6136 24.5511C84.4943 24.5511 85.2898 24.3286 86 23.8835C86.715 23.4384 87.2808 22.7827 87.6974 21.9162C88.1188 21.0497 88.3295 19.9867 88.3295 18.7273ZM97.2003 26.2273C96.1776 26.2273 95.2969 25.9858 94.5582 25.5028C93.8196 25.0199 93.2514 24.3546 92.8537 23.5071C92.456 22.6596 92.2571 21.6913 92.2571 20.6023C92.2571 19.4943 92.4607 18.5166 92.8679 17.669C93.2798 16.8168 93.8527 16.1515 94.5866 15.6733C95.3253 15.1903 96.187 14.9489 97.1719 14.9489C97.9389 14.9489 98.6302 15.0909 99.2457 15.375C99.8613 15.6591 100.366 16.0568 100.759 16.5682C101.152 17.0795 101.395 17.6761 101.49 18.358H99.8139C99.6861 17.8608 99.402 17.4205 98.9616 17.0369C98.526 16.6487 97.9389 16.4545 97.2003 16.4545C96.5469 16.4545 95.974 16.625 95.4815 16.9659C94.9938 17.3021 94.6127 17.7779 94.3381 18.3935C94.0682 19.0043 93.9332 19.7216 93.9332 20.5455C93.9332 21.3883 94.0658 22.1222 94.331 22.7472C94.6009 23.3722 94.9796 23.8575 95.4673 24.2031C95.9598 24.5488 96.5374 24.7216 97.2003 24.7216C97.6359 24.7216 98.0312 24.6458 98.3864 24.4943C98.7415 24.3428 99.0421 24.125 99.2884 23.8409C99.5346 23.5568 99.7098 23.2159 99.8139 22.8182H101.49C101.395 23.4621 101.161 24.0421 100.787 24.5582C100.418 25.0696 99.9276 25.4768 99.3168 25.7798C98.7107 26.0781 98.0052 26.2273 97.2003 26.2273ZM103.94 26V15.0909H108.401C109.575 15.0909 110.508 15.3561 111.199 15.8864C111.89 16.4167 112.236 17.1174 112.236 17.9886C112.236 18.6515 112.039 19.1652 111.646 19.5298C111.253 19.8897 110.749 20.1335 110.134 20.2614C110.536 20.3182 110.927 20.4602 111.305 20.6875C111.689 20.9148 112.006 21.2273 112.257 21.625C112.508 22.018 112.634 22.5009 112.634 23.0739C112.634 23.6326 112.491 24.1321 112.207 24.5724C111.923 25.0128 111.516 25.3608 110.986 25.6165C110.455 25.8722 109.821 26 109.082 26H103.94ZM105.531 24.4659H109.082C109.66 24.4659 110.112 24.3286 110.439 24.054C110.766 23.7794 110.929 23.4053 110.929 22.9318C110.929 22.3684 110.766 21.9257 110.439 21.6037C110.112 21.277 109.66 21.1136 109.082 21.1136H105.531V24.4659ZM105.531 19.6648H108.401C108.85 19.6648 109.236 19.6032 109.558 19.4801C109.88 19.3523 110.126 19.1723 110.297 18.9403C110.472 18.7036 110.56 18.4242 110.56 18.1023C110.56 17.643 110.368 17.2831 109.984 17.0227C109.601 16.7576 109.073 16.625 108.401 16.625H105.531V19.6648ZM115.171 26V15.0909H116.847V26H115.171ZM116.023 13.2727C115.696 13.2727 115.415 13.1615 115.178 12.9389C114.946 12.7164 114.83 12.4489 114.83 12.1364C114.83 11.8239 114.946 11.5563 115.178 11.3338C115.415 11.1113 115.696 11 116.023 11C116.35 11 116.629 11.1113 116.861 11.3338C117.098 11.5563 117.216 11.8239 117.216 12.1364C117.216 12.4489 117.098 12.7164 116.861 12.9389C116.629 13.1615 116.35 13.2727 116.023 13.2727ZM119.292 16.6534V15.0909H128.156V16.6534H124.576V26H122.9V16.6534H119.292ZM133.244 26.2557C132.553 26.2557 131.926 26.1255 131.362 25.8651C130.799 25.5999 130.351 25.2188 130.02 24.7216C129.688 24.2197 129.523 23.6136 129.523 22.9034C129.523 22.2784 129.646 21.7718 129.892 21.3835C130.138 20.9905 130.467 20.6828 130.879 20.4602C131.291 20.2377 131.746 20.072 132.243 19.9631C132.745 19.8494 133.249 19.7595 133.756 19.6932C134.419 19.608 134.956 19.544 135.368 19.5014C135.785 19.4541 136.088 19.3759 136.277 19.267C136.471 19.1581 136.568 18.9687 136.568 18.6989V18.642C136.568 17.9413 136.376 17.3968 135.993 17.0085C135.614 16.6203 135.039 16.4261 134.267 16.4261C133.467 16.4261 132.839 16.6013 132.385 16.9517C131.93 17.3021 131.611 17.6761 131.426 18.0739L129.835 17.5057C130.119 16.8428 130.498 16.3267 130.972 15.9574C131.45 15.5833 131.971 15.3229 132.534 15.1761C133.102 15.0246 133.661 14.9489 134.21 14.9489C134.561 14.9489 134.963 14.9915 135.418 15.0767C135.877 15.1572 136.32 15.3253 136.746 15.581C137.177 15.8366 137.534 16.2225 137.818 16.7386C138.102 17.2547 138.244 17.946 138.244 18.8125V26H136.568V24.5227H136.483C136.369 24.7595 136.18 25.0128 135.915 25.2827C135.65 25.5526 135.297 25.7822 134.857 25.9716C134.416 26.161 133.879 26.2557 133.244 26.2557ZM133.5 24.75C134.163 24.75 134.722 24.6198 135.176 24.3594C135.635 24.099 135.981 23.7628 136.213 23.3509C136.45 22.9389 136.568 22.5057 136.568 22.0511V20.517C136.497 20.6023 136.341 20.6804 136.099 20.7514C135.863 20.8177 135.588 20.8769 135.276 20.929C134.968 20.9763 134.667 21.0189 134.374 21.0568C134.085 21.09 133.85 21.1184 133.67 21.142C133.235 21.1989 132.828 21.2912 132.449 21.419C132.075 21.5421 131.772 21.7292 131.54 21.9801C131.313 22.2263 131.199 22.5625 131.199 22.9886C131.199 23.571 131.414 24.0114 131.845 24.3097C132.281 24.6032 132.832 24.75 133.5 24.75ZM90.0341 42.7273C90.0341 44.2614 89.7571 45.5871 89.2031 46.7045C88.6491 47.822 87.8892 48.6837 86.9233 49.2898C85.9574 49.8958 84.8542 50.1989 83.6136 50.1989C82.3731 50.1989 81.2699 49.8958 80.304 49.2898C79.3381 48.6837 78.5781 47.822 78.0241 46.7045C77.4702 45.5871 77.1932 44.2614 77.1932 42.7273C77.1932 41.1932 77.4702 39.8674 78.0241 38.75C78.5781 37.6326 79.3381 36.7708 80.304 36.1648C81.2699 35.5587 82.3731 35.2557 83.6136 35.2557C84.8542 35.2557 85.9574 35.5587 86.9233 36.1648C87.8892 36.7708 88.6491 37.6326 89.2031 38.75C89.7571 39.8674 90.0341 41.1932 90.0341 42.7273ZM88.3295 42.7273C88.3295 41.4678 88.1188 40.4048 87.6974 39.5384C87.2808 38.6719 86.715 38.0161 86 37.571C85.2898 37.1259 84.4943 36.9034 83.6136 36.9034C82.733 36.9034 81.9351 37.1259 81.2202 37.571C80.5099 38.0161 79.9441 38.6719 79.5227 39.5384C79.1061 40.4048 78.8977 41.4678 78.8977 42.7273C78.8977 43.9867 79.1061 45.0497 79.5227 45.9162C79.9441 46.7827 80.5099 47.4384 81.2202 47.8835C81.9351 48.3286 82.733 48.5511 83.6136 48.5511C84.4943 48.5511 85.2898 48.3286 86 47.8835C86.715 47.4384 87.2808 46.7827 87.6974 45.9162C88.1188 45.0497 88.3295 43.9867 88.3295 42.7273ZM100.07 43.7784V45.3409H94.0469V43.7784H100.07ZM94.4446 39.0909V50H92.7685V39.0909H94.4446ZM101.348 39.0909V50H99.6719V39.0909H101.348ZM103.443 50V48.4375H103.841C104.168 48.4375 104.44 48.3736 104.658 48.2457C104.875 48.1132 105.051 47.8835 105.183 47.5568C105.321 47.2254 105.425 46.7661 105.496 46.179C105.571 45.5871 105.626 44.8343 105.659 43.9205L105.858 39.0909H113.131V50H111.455V40.6534H107.449L107.278 44.5455C107.241 45.4403 107.16 46.2287 107.037 46.9105C106.919 47.5876 106.736 48.1558 106.49 48.6151C106.249 49.0743 105.927 49.42 105.524 49.652C105.122 49.884 104.617 50 104.011 50H103.443ZM119.416 50.2557C118.725 50.2557 118.098 50.1255 117.534 49.8651C116.971 49.5999 116.523 49.2188 116.192 48.7216C115.86 48.2197 115.695 47.6136 115.695 46.9034C115.695 46.2784 115.818 45.7718 116.064 45.3835C116.31 44.9905 116.639 44.6828 117.051 44.4602C117.463 44.2377 117.918 44.072 118.415 43.9631C118.917 43.8494 119.421 43.7595 119.928 43.6932C120.59 43.608 121.128 43.544 121.54 43.5014C121.956 43.4541 122.259 43.3759 122.449 43.267C122.643 43.1581 122.74 42.9687 122.74 42.6989V42.642C122.74 41.9413 122.548 41.3968 122.165 41.0085C121.786 40.6203 121.211 40.4261 120.439 40.4261C119.639 40.4261 119.011 40.6013 118.557 40.9517C118.102 41.3021 117.783 41.6761 117.598 42.0739L116.007 41.5057C116.291 40.8428 116.67 40.3267 117.143 39.9574C117.622 39.5833 118.143 39.3229 118.706 39.1761C119.274 39.0246 119.833 38.9489 120.382 38.9489C120.732 38.9489 121.135 38.9915 121.589 39.0767C122.049 39.1572 122.491 39.3253 122.918 39.581C123.348 39.8366 123.706 40.2225 123.99 40.7386C124.274 41.2547 124.416 41.946 124.416 42.8125V50H122.74V48.5227H122.655C122.541 48.7595 122.352 49.0128 122.087 49.2827C121.821 49.5526 121.469 49.7822 121.028 49.9716C120.588 50.161 120.051 50.2557 119.416 50.2557ZM119.672 48.75C120.335 48.75 120.893 48.6198 121.348 48.3594C121.807 48.099 122.153 47.7628 122.385 47.3509C122.622 46.9389 122.74 46.5057 122.74 46.0511V44.517C122.669 44.6023 122.513 44.6804 122.271 44.7514C122.035 44.8177 121.76 44.8769 121.447 44.929C121.14 44.9763 120.839 45.0189 120.545 45.0568C120.257 45.09 120.022 45.1184 119.842 45.142C119.407 45.1989 119 45.2912 118.621 45.419C118.247 45.5421 117.944 45.7292 117.712 45.9801C117.484 46.2263 117.371 46.5625 117.371 46.9886C117.371 47.571 117.586 48.0114 118.017 48.3097C118.453 48.6032 119.004 48.75 119.672 48.75ZM129.152 47.5284L134.407 39.0909H136.339V50H134.663V41.5625L129.436 50H127.475V39.0909H129.152V47.5284ZM133.299 35.4545H134.862C134.862 36.2216 134.597 36.849 134.066 37.3366C133.536 37.8243 132.816 38.0682 131.907 38.0682C131.012 38.0682 130.3 37.8243 129.77 37.3366C129.244 36.849 128.981 36.2216 128.981 35.4545H130.544C130.544 35.8239 130.645 36.1482 130.849 36.4276C131.057 36.7069 131.41 36.8466 131.907 36.8466C132.404 36.8466 132.76 36.7069 132.973 36.4276C133.19 36.1482 133.299 35.8239 133.299 35.4545ZM146.71 43.7784V45.3409H140.688V43.7784H146.71ZM141.085 39.0909V50H139.409V39.0909H141.085ZM147.989 39.0909V50H146.312V39.0909H147.989Z" fill="white"/>
</svg>
